HIERARCHY
ROOT Hips
{
  OFFSET 54.2319 95.7225 13.339
  CHANNELS 6 Xposition Yposition Zposition Zrotation Xrotation Yrotation
  JOINT spine
  {
    OFFSET 0 7.96568 0.458067
    CHANNELS 3 Zrotation Xrotation Yrotation
    JOINT spine1
    {
      OFFSET 0 10.2431 0
      CHANNELS 3 Zrotation Xrotation Yrotation
      JOINT spine2
      {
        OFFSET 0 9.81475 0
        CHANNELS 3 Zrotation Xrotation Yrotation
        JOINT Neck
        {
          OFFSET 0 25.1986 1.20138
          CHANNELS 3 Zrotation Xrotation Yrotation
          JOINT Head
          {
            OFFSET 0 7.61315 0
            CHANNELS 3 Zrotation Xrotation Yrotation
            End Site
            {
              OFFSET 0 18.4281 -6.07733
            }
          }
        }
        JOINT RightShoulder
        {
          OFFSET -4.1327 10.5992 -0.575451
          CHANNELS 3 Zrotation Xrotation Yrotation
          JOINT RightArm
          {
            OFFSET 0 13.9018 0
            CHANNELS 3 Zrotation Xrotation Yrotation
            JOINT RightArmRoll
            {
              OFFSET 0 7.01789 0
              CHANNELS 3 Zrotation Xrotation Yrotation
              JOINT RightForeArm
              {
                OFFSET 0 20.4406 0
                CHANNELS 3 Zrotation Xrotation Yrotation
                JOINT RightForeArmRoll
                {
                  OFFSET 0 7.87515 0
                  CHANNELS 3 Zrotation Xrotation Yrotation
                  JOINT RightHand
                  {
                    OFFSET 0 15.8037 0
                    CHANNELS 3 Zrotation Xrotation Yrotation
                    End Site
                    {
                      OFFSET 0 0 0
                    }
                  }
                }
              }
            }
          }
        }
        JOINT LeftShoulder
        {
          OFFSET 4.1327 10.5992 -0.575451
          CHANNELS 3 Zrotation Xrotation Yrotation
          JOINT LeftArm
          {
            OFFSET 0 13.9018 0
            CHANNELS 3 Zrotation Xrotation Yrotation
            JOINT LeftArmRoll
            {
              OFFSET 0 7.01789 0
              CHANNELS 3 Zrotation Xrotation Yrotation
              JOINT LeftForeArm
              {
                OFFSET 0 20.4406 0
                CHANNELS 3 Zrotation Xrotation Yrotation
                JOINT LeftForeArmRoll
                {
                  OFFSET 0 7.87515 0
                  CHANNELS 3 Zrotation Xrotation Yrotation
                  JOINT LeftHand
                  {
                    OFFSET 0 15.8037 0
                    CHANNELS 3 Zrotation Xrotation Yrotation
                    End Site
                    {
                      OFFSET 0 0 0
                    }
                  }
                }
              }
            }
          }
        }
      }
    }
  }
  JOINT RightUpLeg
  {
    OFFSET -7.06048 -1.2947 -1.0861
    CHANNELS 3 Zrotation Xrotation Yrotation
    JOINT RightUpLegRoll
    {
      OFFSET 0 18.5308 0
      CHANNELS 3 Zrotation Xrotation Yrotation
      JOINT RightLeg
      {
        OFFSET 0 -22.9476 0
        CHANNELS 3 Zrotation Xrotation Yrotation
        JOINT RightLegRoll
        {
          OFFSET 0 23.0226 0
          CHANNELS 3 Zrotation Xrotation Yrotation
          JOINT RightFoot
          {
            OFFSET 0 19.1625 0
            CHANNELS 3 Zrotation Xrotation Yrotation
            JOINT RightToeBase
            {
              OFFSET 0 16.0188 0
              CHANNELS 3 Zrotation Xrotation Yrotation
              End Site
              {
                OFFSET 0.00678979 7.75782 -0.894207
              }
            }
          }
        }
      }
    }
  }
  JOINT LeftUpLeg
  {
    OFFSET 7.06048 -1.2947 -1.0861
    CHANNELS 3 Zrotation Xrotation Yrotation
    JOINT LeftUpLegRoll
    {
      OFFSET 0 18.5309 0
      CHANNELS 3 Zrotation Xrotation Yrotation
      JOINT LeftLeg
      {
        OFFSET 0 22.9475 0
        CHANNELS 3 Zrotation Xrotation Yrotation
        JOINT LeftLegRoll
        {
          OFFSET 0 23.2355 0
          CHANNELS 3 Zrotation Xrotation Yrotation
          JOINT LeftFoot
          {
            OFFSET 0 18.9496 0
            CHANNELS 3 Zrotation Xrotation Yrotation
            JOINT LeftToeBase
            {
              OFFSET 0 16.0188 0
              CHANNELS 3 Zrotation Xrotation Yrotation
              End Site
              {
                OFFSET -0.0304289 7.75782 -0.894206
              }
            }
          }
        }
      }
    }
  }
}
MOTION
Frames: 12
Frame Time: 0.00208333
53.4116 95.6595 13.8096 -0.989941 -2.85142 1.04418 0.186245 -2.13345 0.0229748 0.384016 -0.246145 0.035501 0.383774 1.39891 0.0290247 0.723912 27.348 -0.377763 -0.994468 -4.06327 -0.234011 73.5478 3.40958 -0.194913 104.283 16.732 28.6334 -6.88075e-006 2.70199e-006 -5.40628e-007 -4.06232 -0.0352843 0.338784 -5.3833e-006 -5.9931e-006 -3.08718 8.03007 -4.95137 0.697625 -72.1695 1.32587 0.95803 -105.377 19.4377 -21.1361 5.93118e-006 5.43863e-007 4.11959e-006 0.676585 -0.00369544 -0.409053 -7.25252e-006 -4.8924e-006 3.00837 -8.03025 -4.95135 -0.697645 176.533 -4.82849 -2.32885 180 7.01514e-015 178.789 177.784 4.2647 179.601 -7.01401e-008 2.85013e-007 0.0615672 -19.2729 68.4898 19.9546 8.16732 25.7032 -2.85708 -173.293 -1.97144 0.00496813 4.54188e-006 -4.6773e-006 -1.15092 -1.89657 -6.61651 0.153336 -3.51941e-006 -4.47016e-006 -0.0767967 19.056 69.1248 -20.5006 -8.13649 25.2327 3.48774 
53.4121 95.6609 13.8113 -0.990654 -2.84349 1.039 0.185509 -2.13503 0.0226529 0.38223 -0.252349 0.03439 0.381987 1.39271 0.0279391 0.723164 27.3358 -0.375936 -0.99438 -4.03273 -0.232255 73.5666 3.41568 -0.194825 104.22 16.7437 28.7914 -6.88075e-006 2.70199e-006 -5.40628e-007 -4.20466 -0.0357059 0.355689 -5.3833e-006 -5.9931e-006 -3.08793 8.03007 -4.95137 0.697625 -72.1703 1.3211 0.960243 -105.379 19.4408 -21.139 5.93118e-006 5.43863e-007 4.11959e-006 0.682669 -0.00369544 -0.40902 -7.25252e-006 -4.8924e-006 3.00837 -8.03025 -4.95135 -0.697645 176.531 -4.82318 -2.32814 180 7.01514e-015 178.789 177.783 4.25661 179.601 -7.01402e-008 2.85013e-007 0.0615706 -19.2676 68.4838 19.9489 8.1673 25.703 -2.85642 -173.294 -1.96709 0.00519388 4.54188e-006 -4.6773e-006 -1.15092 -1.89725 -6.61338 0.15336 -3.51941e-006 -4.47016e-006 -0.0767967 19.0592 69.1257 -20.5002 -8.13649 25.2327 3.48774 
53.4111 95.66 13.8114 -0.991329 -2.83561 1.03378 0.184776 -2.13656 0.0223255 0.380441 -0.258596 0.0332547 0.380198 1.38646 0.026829 0.722432 27.3248 -0.37398 -0.994377 -4.00265 -0.230373 73.5855 3.42174 -0.194759 104.158 16.7565 28.9504 -6.88075e-006 2.70199e-006 -5.40628e-007 -4.34908 -0.0361221 0.372794 -5.3833e-006 -5.99311e-006 -3.08869 8.03007 -4.95137 0.697625 -72.1719 1.31698 0.96224 -105.381 19.4436 -21.1424 5.93118e-006 5.43863e-007 4.11959e-006 0.688571 -0.00369543 -0.408972 -7.25252e-006 -4.8924e-006 3.00837 -8.03025 -4.95135 -0.697645 176.53 -4.81795 -2.3273 180 7.01514e-015 178.789 177.782 4.24843 179.601 -7.01402e-008 2.85013e-007 0.0615802 -19.2622 68.4777 19.943 8.16729 25.7028 -2.85572 -173.296 -1.96296 0.00545631 4.54188e-006 -4.6773e-006 -1.15092 -1.89796 -6.61005 0.153389 -3.51941e-006 -4.47016e-006 -0.0767967 19.0626 69.1266 -20.4999 -8.13649 25.2327 3.48774 
53.4096 95.6605 13.8094 -0.991978 -2.82777 1.02853 0.184046 -2.13804 0.0219941 0.37865 -0.264873 0.0321024 0.378406 1.38018 0.0257017 0.721712 27.3145 -0.371935 -0.994435 -3.9729 -0.228402 73.6045 3.42779 -0.194708 104.097 16.77 29.1101 -6.88075e-006 2.70199e-006 -5.40628e-007 -4.49497 -0.0365343 0.390037 -5.3833e-006 -5.9931e-006 -3.08946 8.03007 -4.95137 0.697625 -72.174 1.3133 0.964086 -105.382 19.4462 -21.1462 5.93118e-006 5.43863e-007 4.11959e-006 0.694345 -0.00369543 -0.408912 -7.25252e-006 -4.8924e-006 3.00837 -8.03025 -4.95135 -0.697645 176.528 -4.81277 -2.32637 180 7.01514e-015 178.789 177.78 4.24022 179.601 -7.01401e-008 2.85013e-007 0.0615941 -19.2566 68.4714 19.9371 8.16728 25.7026 -2.85498 -173.297 -1.95898 0.00574441 4.54188e-006 -4.6773e-006 -1.15092 -1.89868 -6.60657 0.15342 -3.51941e-006 -4.47016e-006 -0.0767967 19.0661 69.1275 -20.4995 -8.13649 25.2327 3.48774 
53.4117 95.6613 13.8116 -0.992611 -2.81995 1.02326 0.183318 -2.1395 0.0216606 0.376858 -0.271167 0.0309404 0.376613 1.37389 0.0245646 0.720998 27.3046 -0.369838 -0.994527 -3.94332 -0.22638 73.6234 3.43382 -0.194667 104.037 16.7837 29.2701 -6.88075e-006 2.70199e-006 -5.40628e-007 -4.64168 -0.0369444 0.407361 -5.3833e-006 -5.9931e-006 -3.09023 8.03007 -4.95137 0.697625 -72.1763 1.30988 0.965845 -105.382 19.4486 -21.1503 5.93118e-006 5.43863e-007 4.11959e-006 0.700047 -0.00369542 -0.408846 -7.25252e-006 -4.8924e-006 3.00837 -8.03025 -4.95135 -0.697645 176.527 -4.80763 -2.32539 180 7.01514e-015 178.789 177.779 4.23194 179.601 -7.01402e-008 2.85013e-007 0.0616105 -19.2511 68.4651 19.9311 8.16726 25.7024 -2.85421 -173.298 -1.95507 0.00604718 4.54188e-006 -4.6773e-006 -1.15092 -1.89941 -6.60302 0.153454 -3.51941e-006 -4.47016e-006 -0.0767967 19.0696 69.1285 -20.4991 -8.13649 25.2327 3.48774 
53.4179 95.6598 13.8062 -0.993238 -2.81214 1.01799 0.18259 -2.14096 0.0213265 0.375065 -0.277466 0.029776 0.374819 1.36759 0.0234251 0.720286 27.2949 -0.367729 -0.99463 -3.91379 -0.224345 73.6424 3.43984 -0.194627 103.976 16.7974 29.4303 -6.88075e-006 2.70199e-006 -5.40628e-007 -4.78861 -0.0373539 0.424705 -5.3833e-006 -5.9931e-006 -3.091 8.03007 -4.95137 0.697625 -72.1788 1.30653 0.967583 -105.383 19.451 -21.1544 5.93118e-006 5.43863e-007 4.11959e-006 0.705731 -0.00369542 -0.408779 -7.25252e-006 -4.8924e-006 3.00837 -8.03025 -4.95135 -0.697645 176.525 -4.80249 -2.32439 180 7.01514e-015 178.789 177.778 4.22367 179.601 -7.01402e-008 2.85013e-007 0.0616275 -19.2455 68.4588 19.9251 8.16725 25.7022 -2.85344 -173.299 -1.95119 0.00635361 4.54188e-006 -4.6773e-006 -1.15092 -1.90014 -6.59944 0.153487 -3.51941e-006 -4.47016e-006 -0.0767967 19.0732 69.1294 -20.4986 -8.13649 25.2327 3.48774 
53.4138 95.6616 13.8073 -0.993872 -2.80431 1.01272 0.181861 -2.14242 0.0209935 0.373273 -0.283756 0.0286165 0.373026 1.3613 0.0222905 0.719572 27.2849 -0.365646 -0.994718 -3.88417 -0.222336 73.6614 3.44587 -0.194584 103.915 16.8105 29.5903 -6.88075e-006 2.70199e-006 -5.40628e-007 -4.93512 -0.0377645 0.442008 -5.3833e-006 -5.9931e-006 -3.09178 8.03007 -4.95137 0.697625 -72.1811 1.30305 0.969364 -105.383 19.4534 -21.1583 5.93118e-006 5.43863e-007 4.11959e-006 0.711451 -0.00369541 -0.408714 -7.25252e-006 -4.8924e-006 3.00837 -8.03025 -4.95135 -0.697645 176.523 -4.79734 -2.32342 180 7.01514e-015 178.789 177.776 4.21541 179.601 -7.01401e-008 2.85013e-007 0.0616433 -19.2399 68.4525 19.9191 8.16723 25.702 -2.85268 -173.3 -1.94727 0.00665271 4.54188e-006 -4.6773e-006 -1.15092 -1.90087 -6.59591 0.15352 -3.51941e-006 -4.47016e-006 -0.0767967 19.0767 69.1303 -20.4982 -8.13649 25.2327 3.48774 
53.4132 95.6594 13.8069 -0.994522 -2.79646 1.00748 0.18113 -2.14392 0.0206633 0.371481 -0.290024 0.0274691 0.371234 1.35503 0.0211682 0.718852 27.2744 -0.363628 -0.994767 -3.85432 -0.220391 73.6804 3.45192 -0.194529 103.853 16.8228 29.7499 -6.88075e-006 2.70199e-006 -5.40628e-007 -5.08059 -0.0381778 0.459212 -5.3833e-006 -5.99311e-006 -3.09254 8.03007 -4.95137 0.697625 -72.183 1.29924 0.971253 -105.384 19.456 -21.1621 5.93118e-006 5.43863e-007 4.11959e-006 0.717262 -0.00369541 -0.408658 -7.25252e-006 -4.8924e-006 3.00837 -8.03025 -4.95135 -0.697645 176.522 -4.79215 -2.32252 180 7.01514e-015 178.789 177.775 4.20719 179.601 -7.01402e-008 2.85013e-007 0.061656 -19.2344 68.4463 19.9132 8.16722 25.7018 -2.85195 -173.302 -1.94324 0.00693346 4.54188e-006 -4.6773e-006 -1.15092 -1.90159 -6.59248 0.153551 -3.51941e-006 -4.47016e-006 -0.0767967 19.0801 69.1312 -20.4978 -8.13649 25.2327 3.48774 
53.4149 95.6594 13.807 -0.995199 -2.78857 1.00227 0.180396 -2.14546 0.0203375 0.369691 -0.296258 0.0263411 0.369444 1.3488 0.0200655 0.71812 27.263 -0.361713 -0.994751 -3.8241 -0.218548 73.6992 3.458 -0.194456 103.79 16.8339 29.9087 -6.88075e-006 2.70199e-006 -5.40628e-007 -5.22439 -0.0385956 0.476257 -5.3833e-006 -5.9931e-006 -3.0933 8.03007 -4.95137 0.697625 -72.1844 1.29492 0.973315 -105.386 19.4589 -21.1653 5.93118e-006 5.43863e-007 4.11959e-006 0.723218 -0.00369541 -0.408614 -7.25252e-006 -4.8924e-006 3.00837 -8.03025 -4.95135 -0.697645 176.52 -4.78689 -2.32172 180 7.01514e-015 178.789 177.774 4.19906 179.6 -7.01402e-008 2.85013e-007 0.0616637 -19.229 68.4402 19.9074 8.1672 25.7016 -2.85126 -173.303 -1.93904 0.00718488 4.54188e-006 -4.6773e-006 -1.15092 -1.90229 -6.5892 0.153578 -3.51941e-006 -4.47016e-006 -0.0767967 19.0835 69.1322 -20.4975 -8.13649 25.2327 3.48774 
53.4242 95.6529 13.7756 -0.995915 -2.78061 0.997115 0.179659 -2.14707 0.0200178 0.367904 -0.302445 0.0252397 0.367656 1.34261 0.0189897 0.717374 27.2505 -0.35994 -0.994646 -3.79338 -0.216846 73.718 3.46411 -0.194359 103.726 16.8434 30.0665 -6.88075e-006 2.70199e-006 -5.40628e-007 -5.36589 -0.0390194 0.493082 -5.3833e-006 -5.9931e-006 -3.09405 8.03007 -4.95137 0.697625 -72.1849 1.28989 0.975615 -105.39 19.4623 -21.1679 5.93118e-006 5.43863e-007 4.11959e-006 0.729375 -0.0036954 -0.408588 -7.25252e-006 -4.8924e-006 3.00837 -8.03025 -4.95135 -0.697645 176.519 -4.78155 -2.32106 180 7.01514e-015 178.789 177.772 4.191 179.6 -7.01402e-008 2.85013e-007 0.0616646 -19.2238 68.4342 19.9017 8.16719 25.7014 -2.85064 -173.304 -1.93462 0.00739596 4.54188e-006 -4.6773e-006 -1.15092 -1.90297 -6.58615 0.153601 -3.51941e-006 -4.47016e-006 -0.0767967 19.0867 69.1331 -20.4971 -8.13649 25.2327 3.48774 
53.4251 95.6553 13.7804 -0.996681 -2.77257 0.99202 0.178916 -2.14876 0.0197059 0.366119 -0.308572 0.0241723 0.365872 1.33649 0.0179483 0.716607 27.2364 -0.358349 -0.994425 -3.76203 -0.215321 73.7366 3.47026 -0.19423 103.659 16.851 30.223 -6.88075e-006 2.70199e-006 -5.40628e-007 -5.50447 -0.0394509 0.509629 -5.3833e-006 -5.9931e-006 -3.09479 8.03007 -4.95137 0.697625 -72.1844 1.28396 0.978217 -105.394 19.4661 -21.1697 5.93118e-006 5.43863e-007 4.11959e-006 0.735787 -0.00369539 -0.408583 -7.25252e-006 -4.8924e-006 3.00837 -8.03025 -4.95135 -0.697645 176.518 -4.77609 -2.32058 180 7.01514e-015 178.789 177.771 4.18307 179.6 -7.01401e-008 2.85013e-007 0.0616568 -19.2187 68.4285 19.8963 8.16718 25.7012 -2.85008 -173.305 -1.9299 0.00755569 4.54188e-006 -4.6773e-006 -1.15092 -1.90361 -6.58338 0.153618 -3.51941e-006 -4.47016e-006 -0.0767967 19.0897 69.1341 -20.4968 -8.13649 25.2327 3.48774 
53.4156 95.6616 13.8078 -0.997507 -2.76444 0.987002 0.178167 -2.15055 0.0194035 0.364339 -0.314625 0.0231461 0.364093 1.33043 0.0169486 0.715817 27.2204 -0.356977 -0.994065 -3.72989 -0.214013 73.7551 3.47647 -0.194063 103.59 16.8562 30.3779 -6.88075e-006 2.70199e-006 -5.40628e-007 -5.63951 -0.0398917 0.525836 -5.3833e-006 -5.9931e-006 -3.09551 8.03007 -4.95137 0.697625 -72.1827 1.27693 0.981186 -105.401 19.4706 -21.1706 5.93118e-006 5.43863e-007 4.11959e-006 0.742508 -0.00369539 -0.408606 -7.25252e-006 -4.8924e-006 3.00837 -8.03025 -4.95135 -0.697645 176.517 -4.77049 -2.32032 180 7.01514e-015 178.789 177.771 4.17528 179.6 -7.01401e-008 2.85013e-007 0.0616385 -19.2139 68.4231 19.8912 8.16717 25.701 -2.84962 -173.305 -1.92483 0.00765308 4.54188e-006 -4.6773e-006 -1.15092 -1.90422 -6.58095 0.153628 -3.51941e-006 -4.47016e-006 -0.0767967 19.0924 69.135 -20.4965 -8.13649 25.2327 3.48774 
